<?xml version="1.0" encoding="UTF-8"?>
<svg id="Camada_1" xmlns="http://www.w3.org/2000/svg" version="1.1" xmlns:xlink="http://www.w3.org/1999/xlink" viewBox="0 0 1276.6 2298.5">
  <!-- Generator: Adobe Illustrator 30.5.1, SVG Export Plug-In . SVG Version: 2.1.4 Build 3)  -->
  <defs>
    <style>
      .st0 {
        stroke-miterlimit: 10;
        stroke-width: 6.2px;
      }

      .st0, .st1, .st2 {
        fill: #2d343e;
      }

      .st0, .st2 {
        stroke: #fff;
      }

      .st3 {
        clip-path: url(#clippath-6);
      }

      .st4 {
        clip-path: url(#clippath-7);
      }

      .st5, .st6, .st7, .st8, .st9, .st10, .st11, .st12, .st13, .st14, .st15 {
        stroke: #000;
      }

      .st5, .st7, .st16, .st8, .st11, .st17 {
        fill: none;
      }

      .st5, .st7, .st17 {
        stroke-linecap: round;
        stroke-linejoin: round;
      }

      .st5, .st8 {
        stroke-width: 4px;
      }

      .st18 {
        fill: #2a97c6;
      }

      .st18, .st19, .st20, .st21, .st22, .st23 {
        isolation: isolate;
      }

      .st19 {
        fill: #001a27;
      }

      .st19, .st20, .st23, .st24 {
        mix-blend-mode: multiply;
      }

      .st25 {
        clip-path: url(#clippath-4);
      }

      .st26 {
        fill: #777;
      }

      .st6 {
        fill: #cadae0;
        stroke-width: 7px;
      }

      .st6, .st8, .st9, .st10, .st11, .st12, .st13, .st14, .st15 {
        stroke-miterlimit: 10;
      }

      .st27 {
        fill: #93dbff;
      }

      .st28, .st10 {
        fill: #ffa858;
      }

      .st29 {
        fill: #9b9b9b;
      }

      .st7 {
        stroke-width: 4.6px;
      }

      .st20 {
        fill: #959595;
      }

      .st20, .st23 {
        opacity: .7;
      }

      .st21 {
        fill: #f2c4b6;
        mix-blend-mode: overlay;
      }

      .st30 {
        clip-path: url(#clippath-1);
      }

      .st9 {
        fill: #ffe86d;
      }

      .st9, .st10, .st12 {
        stroke-width: 4.1px;
      }

      .st31 {
        clip-path: url(#clippath-5);
      }

      .st32 {
        clip-path: url(#clippath-8);
      }

      .st11 {
        stroke-width: 6px;
      }

      .st33 {
        clip-path: url(#clippath-3);
      }

      .st23 {
        fill: #7c8593;
      }

      .st2 {
        stroke-miterlimit: 10;
        stroke-width: 5px;
      }

      .st12 {
        fill: #3fbfff;
      }

      .st13 {
        stroke-width: 7.4px;
      }

      .st13, .st15 {
        fill: #e7f7ff;
      }

      .st14 {
        stroke-width: 3.5px;
      }

      .st14, .st34 {
        fill: #0074ad;
      }

      .st24 {
        opacity: .4;
      }

      .st35 {
        fill: #f29a51;
      }

      .st36 {
        clip-path: url(#clippath-2);
      }

      .st17 {
        stroke: #93dbff;
        stroke-width: 20.2px;
      }

      .st37 {
        fill: #16629b;
      }

      .st38 {
        clip-path: url(#clippath);
      }

      .st15 {
        stroke-width: 7.1px;
      }

      .st39 {
        fill: #514b4b;
      }
    </style>
    <clipPath id="clippath">
      <path class="st16" d="M1087.2,1451.1h-.8c-22.2-.4-41.9-15.6-58.5-45.4-20.3-36.3-39-99-55.6-186.1-3.2-16.7,7.8-32.8,24.4-35.9,16.7-3.2,32.8,7.8,35.9,24.4,24.8,130,47.6,168.6,56.3,179.2,8.1-7.1,22.8-27.6,35.4-65.3,15.4-46,21.1-98.4,15.7-143.8-8.7-73.9-46.5-130.4-76.7-164.8-11.2-12.8-9.9-32.2,2.9-43.3,12.8-11.2,32.2-9.9,43.3,2.9,51.4,58.7,83.1,127.2,91.5,198.1,12.1,101.9-22.5,208.9-62.8,253.6-19.7,21.8-38.6,26.6-51.2,26.6h0Z"/>
    </clipPath>
    <clipPath id="clippath-1">
      <path class="st16" d="M1050,1219.5c-.5,10.9-2.2,21.2-4.6,30.8-.5,2-1,3.9-1.6,5.8-8.8,30.1-25.1,52.4-36.6,65.7-6.2,7.1-15.8,11.1-26,11l-47.4-.5c15.3-40.2,29.9-88.4,28-137.2-.7-17.5-4.2-55.8-28.8-102.7h0c0,0,21,.1,21,.1h7.8c0,0,21.7.3,21.7.3,10.2.1,19.8,4.4,25.9,11.6,16.4,19.8,43.2,60.4,40.6,115.1h0Z"/>
    </clipPath>
    <clipPath id="clippath-2">
      <path class="st16" d="M695.7,1762.9c-5.6.3-13.8.4-65.9.6-86,.2-99.1-3.7-111.9-5.1-34.1-3.7-64.9-22.7-84.8-52.2-37.7-56-77.9-126.6-112.1-212.1-6.3-15.8-9.4-23.8-13.4-35s-8.3-23.5-12.6-36.6c-14.3-43.7-27.8-96-25.6-148.7.8-18.9,4.6-60.3,28.6-110.7,2.4-5.1,5-10.3,7.9-15.6,6.2-11.5,13.5-23.3,22-35.4,0,0,9.1-10.7,24.2-20.4,86.2-55.3,238.3-73.3,238.3-73.3,26.1-4.7,152-26.1,248.4,0,52.2,14.2,77,37.2,83.8,44,20.7,20.3,30.3,41.4,34.8,51.3,41.2,92.1,7.7,229.9,7.7,229.9-50.2,206.2-174.7,414.8-269.4,419.3h0Z"/>
    </clipPath>
    <clipPath id="clippath-3">
      <path class="st16" d="M163.7,1209.4c10.8-35,33.1-59.7,61-62.6.6,0,1.2,0,1.8-.1h.8c0,0,45.7-4.8,45.7-4.8l14.3-1.5c.9-.1,1.7-.3,2.6-.4,44.1-4.5,85.4,47.1,92.4,115.2,7,68.1-23.1,127.1-67.1,131.6-2.7.3-5.3.3-7.9.2l-49.2,5.1c-2.6.7-5.3,1.2-8.1,1.5-44.1,4.5-85.4-47.1-92.4-115.2-2.6-25-.2-48.8,6.1-69h0Z"/>
    </clipPath>
    <clipPath id="clippath-4">
      <path class="st16" d="M308.2,1643.9c-14.8,0-32.8-2.3-51.3-10.4-59.2-26-78-89.9-88.1-124.2-28.8-97.8-5.6-190.4,19.1-250.9,6.4-15.7,24.3-23.3,40-16.9,15.7,6.4,23.3,24.3,16.9,40-20.9,51.4-40.8,129.6-17,210.3,8.3,28.2,20.9,70.8,53.9,85.4,17.9,7.9,35.7,5,46.3,3.3,88.2-14.2,158.8-122.2,178.4-155,8.7-14.6,27.6-19.3,42.1-10.7s19.3,27.6,10.7,42.1c-29.5,49.4-110.1,166.3-221.4,184.2-6.4,1-16.8,2.7-29.6,2.7h0Z"/>
    </clipPath>
    <clipPath id="clippath-5">
      <path class="st16" d="M666.1,1513.6c.2-2.1.2-4.6-.2-7.4-3.8-25.1-42.1-49.1-64.7-40.7-21.3,8-29.3,45.1-47.1,65.3,0,0-10.3,11.8-22.7,14.7-.9.2-1.9.4-1.9.4-.5,0-.9.1-1.4.2-.3,0-.7,0-1,.1h0c-.1,0-.3,0-.4,0-.9,0-1.9.1-2.8,0-.6,0-.6,0,0,0-8.2-.2-16-3.9-26-10.3-12.6-8-28.6-20.2-53.1-34.5-1.3-.8-2.7-1.6-4.1-2.4,0,0,0,0,0,0-4.9,11.2.2,28.7,24.8,56.3-4.4,1.9-10.4,3.7-17.2,3-14.6-1.5-26-13.7-25.7-14,0-.1,1.8.8,8.2,5.1-.5,2.6-1,5.2-1.4,8-.5,3.6-.9,7-1.2,10.2-.8-.4-1.9-1-3.2-1.8-.8-.5-1.4-.9-1.6-1-2.7-1.7-9.7-5.9-9.9-6-46.1-29.5-74.2-68.7-66-90.6,0,0,0,0,0-.2.4-1.2,1-2.3,1.7-3.4,19-38,52.7-93.6,110.3-145.5,2-1.8,4-3.6,6.1-5.4h0c.3-.3.6-.5.9-.8,1.6-1.4,3.3-2.8,4.9-4.2.2-.1.3-.3.5-.4,1.1-.9,2.1-1.8,3.2-2.6,9.7-8,20.1-15.7,31.2-23.2,13-8.7,29.2-19.6,46.6-29.5,1.1-.6,2.2-1.2,3.3-1.9,2.2-1.2,4.5-2.4,6.8-3.6,1.1-.6,2.3-1.2,3.4-1.8,2.3-1.2,4.6-2.3,6.8-3.4,1-.4,1.9-.9,2.9-1.3,1.4-.6,2.7-1.2,4-1.8,0,0,0,0,.1,0,0,0,0,0,0,0,1.5-.6,2.9-1.2,4.4-1.8,2.2-.9,4.4-1.8,6.6-2.6,1.5-.5,2.9-1.1,4.4-1.5,2.2-.8,4.4-1.4,6.5-2.1,2.2-.6,4.3-1.2,6.5-1.7,1.4-.4,2.8-.7,4.3-.9,9-1.8,17.7-2.3,25.8-1.1,1.7.2,3.3.5,4.9.9s3.2.8,4.8,1.4c2.3.8,4.6,1.8,6.8,2.9,49.3,25.8,54.3,139.6,10.9,280.7h0Z"/>
    </clipPath>
    <clipPath id="clippath-6">
      <path class="st16" d="M445,1501.6c1.2.7,2.5,1.4,3.7,2.2-10.8,11.9-22.7,23.7-35.6,34.3-36.1-24.9-59.3-51.7-52.7-62,6.7-10.4,41.8,0,80.5,23.2,0,0,0,0,0,0,1.4.8,2.8,1.6,4.1,2.4h0Z"/>
    </clipPath>
    <clipPath id="clippath-7">
      <path class="st16" d="M666.2,1512c0,0,0,.1,0,.2,0,.5,0,.9-.1,1.3-.2.9-.7,2.2-1.7,3.5-3.9,5.1-12.2,4.9-15.8,4.7-19.9-.9-41.1-16.4-57-14.8-24,2.4-24.4,42.6-51.5,60-13.1,8.4-33.8,12.4-68.2,1,10.3-9.8,19.9-20,28.8-30.1,8.7,5.3,15.8,8.4,23.3,8.6h0c.9,0,1.9,0,2.8,0,.1,0,.3,0,.4,0h0c.3,0,.7,0,1-.1.4,0,.9-.1,1.4-.2,0,0,.9-.2,1.9-.4,12.3-2.9,22.7-14.7,22.7-14.7,17.8-20.2,25.8-57.3,47.1-65.3,17.1,1.3,34.8,13.7,59.3,38.4,2.5,2.7,5.7,6.3,5.6,8.1h0Z"/>
    </clipPath>
    <clipPath id="clippath-8">
      <path class="st16" d="M1266.8,1021.9c-6.2-31.7-10.7-54.8-18.4-78.2-20.1-60.6-97.8-229.9-180.8-220.1-37.7,4.5-61.7,44.1-71.4,60.2-.6,1-1.4,2.3-2.2,3.9-31.6,58.1-15,143.8-9.8,168.8,4.8,23.1,13.5,55.3,30.1,92.2,5.1,14.9,14.6,33.8,32.7,41.8,26.4,11.5,43.1-12.5,75.6-1.2,21.4,7.5,47.7,29.7,51.8,48.4.4,1.9,1.2,6.8,5.1,11.1,6.9,7.7,18.4,7.8,25.1,8.4,11.6,1,20.3-4.9,33.2-13.6,7.7-5.2,25.2-17.4,33.4-40,.2-.6,10.7-4.4-4.3-81.7Z"/>
    </clipPath>
  </defs>
  <g class="st22">
    <g id="uuid-0b22ee86-cf36-42d4-b5ac-564cec1da114">
      <g>
        <g>
          <path id="uuid-f13321df-1348-4424-b7b6-b4147d2d2cd9" class="st6" d="M399.8,984.4l321.9-25.6c406.3-32.3,435.9-181.5,423.2-341.6l-28.8-233.7c-36.8-198.1-141.9-256.8-301.9-244.1l-479.6,22.9c-160,12.7-280.6,154-267.9,314.1l19.1,240c12.7,160,154,280.6,314.1,267.9h0Z"/>
          <path class="st13" d="M174.2,709.5l-19.1-240c-12-151,84.9-284.6,219.2-309l439.7-21c160-12.7,265.1,46,301.9,244.1l28.8,233.7c12.7,160-16.8,309.3-423.2,341.6l-257.6,20.5c-146.7,11.7-277.1-109.8-289.8-269.8h0Z"/>
        </g>
        <g>
          <path class="st34" d="M104.7,490.4c.5,1,1,2.1,1.5,3.1,5.1-.3,12-1,19.9-2.5,0,0,15.2-2.9,30.1-8.6,6.2-2.4,52.3-17.4,81.9-35.7,27.5-17,18.4-67.3,25.3-78.3,11.5-12.1,22.9-24.2,34.4-36.4,236.7,24.3,473.5,48.6,710.2,72.9-46.3,17.1-68.7,29-67.2,35.6,1.8,7.8,37.4,8.2,106.8,1.2,3.3,9.8,6.6,19.7,10,29.5,15.6-6.2,49.9-22.5,72.9-59.2,7.4-11.8,20-32.6,19.6-60.8-.3-19-6.6-32.7-12.4-45.9-10.7-24.5-25.6-41.1-45.9-64.5-11.1-12.8-22.3-24.2-33.4-34.3-26.9-24.6-58.2-44-92.2-57.4,0,0,0,0,0,0-.2,0-.4-.1-.7-.2-12.8-5-26-9.2-39.5-12.6-45-11-98.1-20.4-157.9-24.3-14.2-.9-28.1-1.5-41.6-1.7-.1,0-.3,0-.4,0-95.4-5.8-167.8,1.1-210.8,5.4-72.6,7.2-169.9,22.3-282.2,56.1-1.4.4-2.8.8-4.1,1.2-.2,0-.4.1-.5.2-5.2,1.7-10.5,3.7-15.9,6-22.5,9.9-41.8,24.2-57.9,39.3-17.7,16.6-32.6,43.8-43.3,79.4-3.2,10.6-6.3,22.5-9.2,35.6-5,22.7-8.5,44.9-10.8,65-3.6,31.4,1.7,67.7,13.6,91.8h0Z"/>
          <path class="st37" d="M26,440.7c5.2,10.4,10.3,20.5,15.5,30.9,4.7,17.7,22.6,28.1,40.9,25.3,0,0,.2,0,.3,0,8-1.2,15.8-2.3,23.7-3.3,31.1-4,50.7-34.2,40.8-62.6-.6-1.8-1.2-3.5-1.7-5.1-.6-1.9-1.2-3.8-1.6-5.6-.9-36.5-.5-87.8,7.1-121,7.6-33.2,20-48.7,33-66.4,13-17.8,31.3-39.2,45.8-49.4,11.2-8,23.9-13.8,37.2-17.5,98.2-27.2,183.6-40.1,248.9-46.5,42.9-4.2,115.4-11.1,210.8-5.3.2,0,.3,0,.4,0,13.5.2,27.4.8,41.6,1.7,59.9,3.9,113,13.2,157.9,24.3,13.5,3.3,26.7,7.5,39.5,12.5.2,0,.4.1.7.2h0c34.1,13.5,65.4,32.9,92.2,57.5,11.1,10.2,22.3,21.6,33.4,34.3,19.2,22.2,34.2,44.3,45.9,64.5,6.2,10.7,9.9,22.3,11.2,34,3.2,28.7-10.3,51.9-16.8,61.5-.2.3-1.4,1.7-2.7,3.8-1.7,2.9-2.5,5.6-2.9,7.6l72.2-85.3c26.9-31.8,30.8-75.4,9.9-110.6-13.4-22.5-30.6-47-52.7-71.6-12.7-14.2-25.7-26.8-38.4-38.1-30.8-27.3-66.9-48.7-106-63.5,0,0,0,0,0-.1-.3,0-.5-.1-.7-.2-14.8-5.5-29.9-10.2-45.4-13.8-51.8-12.1-112.9-22.4-181.8-26.5-16.5-1-32.7-1.6-48.4-1.8-109.8-6.1-193.3,1.8-242.8,6.6-83.7,8.3-195.8,25.4-325.2,63.3-1.6.4-3.2.9-4.8,1.4-.2,0-.4.1-.6.2h0c-6,1.9-12.1,4.1-18.4,6.8-25.9,11.1-48.2,27.1-66.8,43.8-20.4,18.5-37.7,48.8-50,88.5-3.7,11.8-7.3,25-10.7,39.6-5.9,25.3-9.9,49.9-12.6,72.4-5,40.3,3.9,87.8,22.3,113.5h0Z"/>
        </g>
        <path class="st7" d="M19.1,429.2c8.3,16.3,16.6,32.6,24.9,48.9,6.9,13.6,22.5,21.1,38.3,18.7,0,0,.2,0,.3,0,8-1.2,15.9-2.3,23.7-3.3,5.1-.3,12-1,19.9-2.5,0,0,15.2-2.9,30.1-8.6,14.1-5.4,67.3-26.3,86.7-42.8,7.2-58.5,11.6-57.1,20.4-71.1,11.5-12.1,22.9-24.2,34.4-36.4,236.7,24.3,473.5,48.6,710.2,72.9-46.3,17.1-68.7,29-67.2,35.6,1.8,7.8,37.4,8.2,106.8,1.2,3.3,9.8,6.6,19.7,10,29.5,8.1-4.8,16.7-10.2,25.4-16.6,17.8-12.9,32.4-26.3,44.1-38.6h0c24.1-28.4,48.2-56.9,72.3-85.3,26.9-31.8,30.8-75.4,9.9-110.5-13.4-22.5-30.6-47-52.7-71.6-12.7-14.2-25.7-26.8-38.4-38.1-30.9-27.3-66.9-48.7-106-63.5,0,0,0,0,0-.1-.2,0-.5-.1-.8-.2-14.7-5.5-29.9-10.2-45.4-13.8-51.8-12.1-112.9-22.4-181.8-26.5-16.5-1-32.7-1.6-48.4-1.8-109.8-6.1-193.3,1.8-242.8,6.6-83.6,8.2-195.8,25.4-325.2,63.3-1.6.5-3.2.9-4.8,1.4-.2,0-.4.1-.6.2h0c-6,1.9-12.1,4.1-18.4,6.8-26,11.1-48.2,27.1-66.8,43.9-20.4,18.5-37.7,48.8-50.1,88.5-3.7,11.8-7.3,25-10.7,39.6-5.9,25.3-9.9,50-12.7,72.4-4.3,35,1.8,75.3,15.4,102.1h0Z"/>
        <path class="st11" d="M79.5,607.5c28,2,56.1,4.1,84.2,6.1,156.6,3.5,330.6-.6,518.8-17.5,164.3-14.8,315.8-37.2,453.1-63.4"/>
        <g id="uuid-617a2d3a-bf78-4d1b-883c-612c92494df5">
          <path class="st1" d="M522.6,902.8c3.4-.2,6.9-.3,10.4-.3,54.7.2,126.5-3.2,209.2-17.1,142.4-24,257.6-43.4,309.7-131.7,22.6-38.3,22.2-81.8,23.5-143.8,1.3-58.5-7.7-119.5-11.2-143.5-2.9-19.7-5.8-36-8-47.5-4.4-21.2-11.6-38.8-19.9-53.4-78.5-137.5-317.9-118.7-338.5-116.8l-314,28c-21.9,2-43.4,8.1-62.7,18.7-14.9,8.2-30.8,20.1-44.9,37.4-39.4,48.5-34.7,103.3-33.6,113.8,6.3,79.9,12.7,159.7,19,239.6,2.5,20.3,14.1,94.1,78.2,152.7,71.8,65.6,158,65.3,182.9,63.9h0Z"/>
          <g class="st24">
            <path class="st39" d="M522.6,902.8c3.4-.2,6.9-.3,10.4-.3,54.7.2,126.5-3.2,209.2-17.1,142.4-24,257.6-43.4,309.7-131.7,22.6-38.3,22.2-81.8,23.5-143.8,1.3-58.5-7.7-119.5-11.2-143.5-2.9-19.7-5.8-36-8-47.5-4.4-21.2-11.6-38.8-19.9-53.4-78.5-137.5-317.9-118.7-338.5-116.8l-314,28c-21.9,2-43.4,8.1-62.7,18.7-14.9,8.2-30.8,20.1-44.9,37.4-39.4,48.5-34.7,103.3-33.6,113.8,6.3,79.9,12.7,159.7,19,239.6,2.5,20.3,14.1,94.1,78.2,152.7,71.8,65.6,158,65.3,182.9,63.9h0Z"/>
          </g>
        </g>
        <path class="st7" d="M143.5,334.7c-2.8,33.4-1.1,60.2,1.1,79.2,2.8,23.8,7.4,43.5-4.1,60.7-6.2,9.3-15,14.6-21.5,17.6"/>
        <path class="st18" d="M659.3,17.5s24.9,15.3,74.9,47.9c76.7,2,148.7-7,266.6,45.3,120,53.2,180.2,162.4,165.9,234.3,108.1-84.6-32.8-197.6-54.9-221.2-23.7-25.4-101.6-66.8-143.1-78.1-150.6-40.8-309.4-28.2-309.4-28.2h0Z"/>
        <ellipse id="uuid-a3259677-7902-4dc0-b83f-9b69f15b9b78" class="st19" cx="591.3" cy="2257.7" rx="312.6" ry="40.8"/>
        <path class="st26" d="M1087.2,1451.1h-.8c-22.2-.4-41.9-15.6-58.5-45.4-20.3-36.3-39-99-55.6-186.1-3.2-16.7,7.8-32.8,24.4-35.9,16.7-3.2,32.8,7.8,35.9,24.4,24.8,130,47.6,168.6,56.3,179.2,8.1-7.1,22.8-27.6,35.4-65.3,15.4-46,21.1-98.4,15.7-143.8-8.7-73.9-46.5-130.4-76.7-164.8-11.2-12.8-9.9-32.2,2.9-43.3,12.8-11.2,32.2-9.9,43.3,2.9,51.4,58.7,83.1,127.2,91.5,198.1,12.1,101.9-22.5,208.9-62.8,253.6-19.7,21.8-38.6,26.6-51.2,26.6h0Z"/>
        <g class="st38">
          <path class="st23" d="M1116.9,1183.6s53.8,18.6,59.8,43c7.3,30,30.4,35.4,60.9,30s28.1-65.2,28.1-65.2l-117.1-134.4-60.8-8.4,29.2,135Z"/>
        </g>
        <g>
          <path class="st34" d="M961.9,1195.1c1.9,48.8-12.8,97-28,137.2l47.4.5c10.1,0,19.8-3.9,26-11,11.6-13.3,27.8-35.6,36.6-65.7-3.5.4-6.9.6-10.1.5-11.1-.1-20.2-2.7-27-7.8-11.3-8.4-11.1-19.7-10.7-35.2.3-13.1.7-29.5-5.3-51.2-4.4-16-14.2-40.9-35.4-68.4-.4-.5-.8-1.1-1.3-1.6l-21-.2h0c24.6,47,28.1,85.3,28.8,102.8h0Z"/>
          <path class="st28" d="M997,1161.2c6.2,22.4,5.8,39.1,5.5,52.6-.4,15-.6,24.1,8.4,30.7,7.5,5.6,18.7,7.5,33.4,5.8h1.2c2.4-9.6,4.1-19.9,4.6-30.8,2.7-54.7-24.1-95.4-40.6-115.1-6.1-7.3-15.7-11.5-25.9-11.6l-21.7-.2c20.9,27.6,30.6,52.4,35.1,68.6h0Z"/>
          <path d="M954.1,1092.5c.4.5.8,1.1,1.3,1.6,21.2,27.5,31,52.4,35.4,68.4,6,21.6,5.6,38,5.3,51.2-.4,15.6-.6,26.8,10.7,35.2,6.8,5.1,15.8,7.7,27,7.8,3.2,0,6.6-.1,10.1-.5.6-1.9,1.1-3.8,1.6-5.8h-1.2c-14.6,1.8-25.8-.1-33.4-5.7-9-6.7-8.8-15.8-8.4-30.7.3-13.5.7-30.3-5.5-52.6-4.5-16.2-14.2-41-35.1-68.6h-7.8c0,0,0,0,0,0Z"/>
        </g>
        <g class="st30">
          <path class="st23" d="M933.1,1073.8s56.5,119.9,30.2,277.5c-26.3,157.5,126.7-115.6,126.7-151.8s-79.3-123.2-83.9-125.7c-4.6-2.5-73,0-73,0h0Z"/>
        </g>
        <path id="uuid-fa80049b-6a1e-4a45-9d07-3373a74e0d6b" class="st15" d="M744.8,1755.8c-5.7,1.4-61.6,12.1-113.7,10.5-85.9-2.6-100.4-6.7-113.3-8.1-34.1-3.7-64.9-22.7-84.8-52.2-37.7-55.9-77.9-126.5-112.1-212-6.3-15.8-9.4-23.8-13.4-35s-8.3-23.5-12.6-36.5c-14.3-43.7-27.8-95.9-25.6-148.6.8-18.9,4.6-60.2,28.6-110.7,2.4-5.1,5-10.3,7.9-15.6,6.2-11.5,13.5-23.3,22-35.4,0,0,9.1-10.7,24.2-20.4,86.2-55.3,238.3-73.3,238.3-73.3,26.1-4.7,152-26.1,248.4,0,52.2,14.2,77,37.2,83.8,43.9,20.7,20.3,30.3,41.4,34.8,51.3,41.2,92.1,7.7,229.8,7.7,229.8-50.2,206.2-136.9,368.4-220.3,412.2h0Z"/>
        <g class="st36">
          <path class="st23" d="M948.9,1019.6c-146.3,47.6-339.4,92.3-536.6,37.1-10.8-3-17.9,10-29.3,8.4-29.2,28.4-35.1,140.4-28.6,249.6,8.3,140.3,70,341.4,216.1,463.2-91.9,65.4-291.1,60.5-336.8-660.2-25.2-398.3,861.4-145.7,715.2-98.2h0Z"/>
        </g>
        <g id="uuid-f18ff549-04ac-4b2d-918b-96113d5ce207">
          <path class="st10" d="M897.6,1295.5c-30-17.7-60.1-35.2-90.9-51.5-12.7-6.2-34-6-38.6,10.9-17.4,53.4-36.1,106.4-54.8,159.4-5.1,14.3-1.8,37.3,15.2,42.5,29,10.8,57.4,22.7,85.7,35.3,13.8,6.5,28.2-7.3,33.9-18.2,22.6-46.1,43.2-93.1,62.5-140.7,4.7-13.4.1-30.6-13-37.7h0Z"/>
          <path class="st9" d="M647.9,1229c-31.3,12.7-61.8,27.2-92.6,41.1-13.6,6.9-15.5,24.5-9.6,37.4,20.8,53.2,35.9,108.1,48.3,163.8,2.2,14.3,15.3,26.2,30.1,21.3,31.6-12.2,62.9-25.2,94.6-37.1,16.1-6.1,28.2-24.5,23.6-41.9-13.4-56.8-29.9-113.1-52.2-167.1-6.2-16.2-26.6-23.5-42.2-17.4h0Z"/>
          <path class="st12" d="M809.3,1223.3c-53.6-12.3-106.4-20-161.4-16.4-15.1,1.7-31.1,14.2-28.1,31.1,9.6,80.4,10.3,161.7,5.2,242.4-1.8,14.8,7.6,30.8,23.3,31.5,46.4-.4,92.8-1.4,139.2-1.5,15.9.2,27.8-15.5,31.3-29.4,14.8-73.5,21.4-148.2,21.1-223.2.2-16.7-15.6-30.9-30.7-34.6h0Z"/>
        </g>
        <path class="st23" d="M780.4,1360.2c.6,12.2-9.6,20.3-16.1,23-6.6,2.7-26.9-.3-35.6-26.3-3.8-13.5-12.5-22.4-20.2-27.8,3.7,62.6,5.2,185.1-36.4,203.2-13.6,11.7-69.6-17.6-80.8-9.2-11.2,8.4-29.6,50.2-38,55.6-8.4,5.4-23.2,21.1-73.5,0-12.6,12.6-39.3,37.1-39.3,37.1l-16.6-32.1,120.4-221.2,98.9-42.8-3.9-.2-34.7-88.6,17.7-44.4,75.6-39.7s31.1-1.8,38.2,5.3c4.5,4.6,7.7,17.1-.9,25.7s-29.9,10.5-50.2,11.1c-20.3.6-37.9,32-37.9,32l29.6-4.8,92,28.7s14.6,24.5-3.3,34.7c-17.9,10.2-33.8-7.5-47.9-15.4-14.1-7.9-31.6,0-31.6,0l3.4,7.9,32.5,18.5s58,57.7,58.6,69.9h0Z"/>
        <g id="uuid-d63a146d-d9f2-4fac-99b3-fb80519038bf">
          <path class="st34" d="M231.1,1196.3c-7.8,21.6-11.1,47.8-8.3,75.5s11.4,52.7,23.4,72.2l5,48.9,56-5.8c2.6.1,5.3,0,7.9-.2,44.1-4.5,74.1-63.4,67.1-131.6-7-68.2-48.4-119.7-92.4-115.2-.9,0-1.7.2-2.6.4l-14.3,1.5c10.7,3.9,21.9,9.4,32.6,17.5,44.2,33.2,63.5,94.4,48.8,155.2-.2,1.7-1.1,8.6-7,13.9-4.7,4.2-9.9,5.1-11.9,5.3-6.7-.3-13.4-.7-20.1-1.1-1.6,0-3.2-.4-4.6-1,6.4-20.4,8.9-44.5,6.3-69.8-6.9-66.8-46.7-117.7-89.8-115.4h-1.3c0,.1,5.1,49.6,5.1,49.6h0Z"/>
          <path class="st37" d="M157.6,1278.5c7,68.2,48.4,119.7,92.4,115.2,27.7-2.8,49.9-27.2,60.8-61.8-1.4-.6-2.8-1.4-4-2.4-13-10.9-25.9-21.8-38.9-32.6-4.6-3.8-7.2-9.7-6.8-15.6.3-4.8.2-9.9-.3-15-3.3-32.7-23.7-57.5-45.4-55.2-6.1.6-11.6,3.3-16.4,7.6-6.9,6.2-17.4,6-24.5,0-3.6-3-7.2-6.1-10.8-9.1-6.3,20.3-8.7,44-6.1,69h0Z"/>
          <path class="st35" d="M163.7,1209.4c3.6,3,7.2,6.1,10.8,9.1,7.1,5.9,17.6,6.2,24.5,0,4.8-4.2,10.3-6.9,16.4-7.6,21.7-2.2,42.1,22.5,45.4,55.2.5,5.1.6,10.2.3,15-.4,6,2.2,11.8,6.8,15.6,12.9,10.9,25.9,21.8,38.9,32.6,1.2,1,2.6,1.8,4,2.4,6.4-20.4,8.9-44.5,6.3-69.8-7-68.1-48.4-119.7-92.4-115.2-27.9,2.9-50.2,27.5-61,62.6h0Z"/>
          <path class="st28" d="M227.3,1146.7c43.1-2.3,82.9,48.6,89.8,115.4,2.6,25.3,0,49.3-6.3,69.8,1.5.6,3,.9,4.6,1,6.7.4,13.4.7,20.1,1.1,1.9-.2,7.2-1.1,11.9-5.3,5.9-5.3,6.8-12.2,7-13.9,14.7-60.9-4.6-122.1-48.8-155.2-10.7-8-21.8-13.6-32.6-17.5l-45.7,4.7h0Z"/>
          <g class="st33">
            <path d="M215.2,1135c2.4,0,5.4.2,9.3.4,6.1.4,12.2,1.4,18,3.1l8.1,2.4,3.7,1.1c.7.2,1.4.3,2.1.4,2.6.1,5.2.4,7.7.9,2.7.5,5.3,1.1,7.9,1.9,11.4,4.1,22,9.8,31.5,16.9,43.2,32.4,61.8,91.8,47.6,151.4,0,.3-.1.7-.2,1-.2,2.1-1.3,7.4-5.9,11.4-3.5,3.2-7.5,4.1-9.7,4.4-5.2-.3-10.3-.5-15.5-.8h-1.8c0,0-2.5-.2-2.5-.2-.6,0-1.2-.1-1.8-.2-.6-.1-1.2-.3-1.7-.5-1.1-.4-2.1-1-3-1.8-12.9-10.8-25.8-21.6-38.7-32.5h-.2c-3.8-3.3-5.9-8.1-5.6-12.9.3-5.1.2-10.3-.3-15.6-3-29.6-19.3-53.3-39.5-57.8-2.2-.5-4.4-.7-6.6-.7s-2,0-3.1.2c-6.7.7-12.8,3.5-18.3,8.4-2.7,2.4-6.1,3.7-9.8,3.7s-2.2-.1-3.3-.4h0c-2.5-.6-4.8-1.7-6.8-3.4-4.2-3.5-7.7-6.4-10.8-9.1l-1-.8-1.6-4.1c0-.1-.1-.3-.2-.4-4.5-9.7-3.7-20.6,2.2-28.4,6-8.2,15.4-10.1,18.1-10.5,0,0,.2,0,.2,0,3.3-.6,6.5-1.7,9.4-3.2,8.2-4.6,11.2-11.6,13.4-16.8,1.6-3.8,2.5-5.8,4.3-6.8.6-.4,2.1-.6,4.5-.6h0M215.2,1126.3c-4,0-6.7.4-9,1.8-9.1,5.4-6.8,17.5-17.5,23.5-2.6,1.4-5,2-6.6,2.3-2.7.4-15.5,2.5-23.9,13.9-7.7,10.5-8.8,24.8-3.1,37.3.8,2,1.6,4.1,2.5,6.1l2.7,2.2c3.6,3.1,7.2,6.1,10.9,9.1,3,2.5,6.7,4.3,10.5,5.2h0c1.7.4,3.5.6,5.2.6,5.8,0,11.3-2.1,15.6-5.9,4.1-3.6,8.6-5.7,13.4-6.2.7,0,1.4-.1,2.2-.1,1.6,0,3.2.2,4.8.5,16.3,3.6,30.1,24.7,32.7,50.1.5,4.7.6,9.5.3,14.1-.5,7.6,2.7,15.1,8.7,20l.2.2c12.9,10.8,25.8,21.6,38.7,32.5,1.7,1.4,3.5,2.5,5.4,3.2,1,.4,2,.7,3,.9,1.1.2,2.2.4,3.3.4h2.5c5.9.4,11.7.8,17.6,1.1h.4s.4,0,.4,0c3.2-.3,9.3-1.7,14.8-6.6,6.7-5.9,8.3-13.6,8.7-16.9,15.1-63-4.8-125.9-50.8-160.4-10.2-7.7-21.7-13.8-34-18.2-2.7-.8-5.8-1.6-9.2-2.2-3.2-.6-6.1-.8-8.8-1-4-1.2-7.9-2.4-11.9-3.6-4.7-1.4-11.5-3-19.9-3.5-4-.2-7.2-.4-9.8-.4h0Z"/>
          </g>
          <path class="st26" d="M308.2,1643.9c-14.8,0-32.8-2.3-51.3-10.4-59.2-26-78-89.9-88.1-124.2-28.8-97.8-5.6-190.4,19.1-250.9,6.4-15.7,24.3-23.3,40-16.9,15.7,6.4,23.3,24.3,16.9,40-20.9,51.4-40.8,129.6-17,210.3,8.3,28.2,20.9,70.8,53.9,85.4,17.9,7.9,35.7,5,46.3,3.3,88.2-14.2,158.8-122.2,178.4-155,8.7-14.6,27.6-19.3,42.1-10.7s19.3,27.6,10.7,42.1c-29.5,49.4-110.1,166.3-221.4,184.2-6.4,1-16.8,2.7-29.6,2.7h0Z"/>
          <g class="st25">
            <path class="st23" d="M322.8,1547.1s61.8,76.6,164.5,72.2,81.6-65,81.6-65l-128-55.1-118.1,47.9h0Z"/>
          </g>
        </g>
        <g>
          <g>
            <g>
              <path class="st29" d="M603.9,1305.9c-40.1-59.8-10.1-143.9,58.4-166.3,17.5-5.9,52.2-9.8,66.3,4.2,7.1,6.8,7.3,18,.5,25.1-2.2,2.5-5.8,4-8.7,5.4-7.6,3.7-15.2,2.2-23,2.9-14.4,1.3-28.4,5.7-40.6,13.6-12.1,8-21.7,19.5-27.4,33-8.9,21.1-8,45.4,2,66.5,7.8,17.9-16.2,31.4-27.5,15.5h0Z"/>
              <path class="st29" d="M606.5,1300.1c0-66.4,66.9-114.6,129.3-87.4,15.2,6.6,41.1,25.9,40.6,43.9-.2,11.5-11.4,20.2-22.6,17.5l-4.3-1c-5.5-1.3-9.1-4.4-12.9-8-5.6-4.9-12.1-9-18.7-11.9-22.1-10.7-47.7-3.8-63.6,14.4-8.4,9.6-14.1,21.9-16.3,35.3-3.9,18.9-30.9,16.4-31.4-2.8h0Z"/>
              <path class="st29" d="M604.6,1302.1c33.6-39.5,95.3-49.4,137.9-17.8,17.1,12.1,29.4,30.6,35.4,50.3,2,7.2,4.3,14.6,3.3,22.2-.4,2.7-1,5.1-2.4,8.2-3.4,7.8-11.8,9.4-20.2,7.9-6.5-1.2-12.2-6.2-13.6-7.8-4-4.7-5.2-10.8-7.7-16.2-2.6-6.1-5.7-11.7-9.1-16.8-10.2-15.5-27.1-25.2-45.7-26.4-20.3-1.6-40.1,5.9-56,19.2-15.3,11.8-34.2-7.8-21.9-22.7h0Z"/>
            </g>
            <path class="st14" d="M666.2,1512c0-1.8,0-3.7-.3-5.8-3.8-25.1-42.1-49.1-64.6-40.7-21.3,8-29.3,45.1-47.1,65.3,0,0-10.3,11.8-22.7,14.7-.9.2-1.9.4-1.9.4-.5,0-.9.1-1.4.2-.3,0-.7,0-1,.1h0c-.1,0-.3,0-.4,0-.9,0-1.9.1-2.8,0h0c-7.5-.2-14.6-3.3-23.3-8.6-.9-.5-1.8-1.1-2.7-1.7-11.9-7.6-26.9-19-49.4-32.3-1.2-.7-2.4-1.5-3.7-2.2-1.3-.8-2.7-1.6-4.1-2.4,0,0,0,0,0,0-38.6-23.3-73.8-33.6-80.5-23.2-6.6,10.3,16.6,37,52.7,62-2.4,2-4.8,3.9-7.3,5.8-2.2,1.7-4.5,3.4-6.7,5-37.3-27.9-58.9-61.1-51.5-80.6,0,0,0-.1,0-.2.5-1.2,1-2.3,1.7-3.4,19-38,52.7-93.6,110.3-145.5,2-1.8,4-3.6,6.1-5.4h0c.3-.3.6-.5.9-.8,1.6-1.4,3.3-2.8,4.9-4.2.1-.1.3-.3.5-.4,1.1-.9,2.1-1.8,3.2-2.7,9.7-8,20.1-15.7,31.1-23.2,13-8.7,29.2-19.6,46.6-29.5,1.1-.6,2.2-1.2,3.3-1.9,2.2-1.2,4.5-2.4,6.8-3.6,1.1-.6,2.3-1.2,3.4-1.8,2.3-1.2,4.6-2.3,6.8-3.4,1-.4,1.9-.9,2.9-1.3,1.3-.6,2.7-1.2,4-1.8,0,0,0,0,.1,0,0,0,0,0,0,0,1.5-.6,2.9-1.2,4.4-1.8,2.2-.9,4.4-1.8,6.6-2.6,1.5-.5,2.9-1.1,4.4-1.5,2.2-.8,4.3-1.5,6.5-2.1,1.5-.5,3-.9,4.6-1.2.7-.2,1.3-.3,1.9-.5,1.4-.3,2.8-.7,4.3-.9,9-1.8,17.7-2.3,25.8-1.1,1.7.2,3.3.5,4.9.9,1.6.4,3.2.8,4.8,1.3,2.3.8,4.6,1.8,6.8,2.9,2.1,1.1,4.1,2.3,6,3.7,13.3,9.6,22.8,26.6,28.4,49.3,12.8,51.8,5.4,133.7-23.5,227.7,0-.4,0-.9.1-1.3,0,0,0-.1,0-.2h0Z"/>
            <path class="st14" d="M445,1501.6c1.2.7,2.5,1.4,3.7,2.2-10.8,11.9-22.7,23.7-35.6,34.3-36.1-24.9-59.3-51.7-52.7-62,6.7-10.4,41.8,0,80.5,23.2,0,0,0,0,0,0,1.4.8,2.8,1.6,4.1,2.4h0Z"/>
            <path class="st14" d="M666.2,1512c0,0,0,.1,0,.2,0,.5,0,.9-.1,1.3-.2.9-.7,2.2-1.7,3.5-3.9,5.1-12.2,4.9-15.8,4.7-19.9-.9-41.1-16.4-57-14.8-24,2.4-24.4,42.6-51.5,60-13.1,8.4-33.8,12.4-68.2,1,10.3-9.8,19.9-20,28.8-30.1,8.7,5.3,15.8,8.4,23.3,8.6h0c.9,0,1.9,0,2.8,0,.1,0,.3,0,.4,0h0c.3,0,.7,0,1-.1.4,0,.9-.1,1.4-.2,0,0,.9-.2,1.9-.4,12.3-2.9,22.7-14.7,22.7-14.7,17.8-20.2,25.8-57.3,47.1-65.3,22.6-8.5,60.8,15.6,64.6,40.7.3,2.1.4,4.1.3,5.8h0Z"/>
          </g>
          <path class="st18" d="M442.2,1475.3s78.3,78.3,98.6,50.2c20.3-28.1,35.3-59.9,35.3-59.9,0,0,62.2-166.6,99.2-179.7-9-28.7-23.9-40-23.9-40,0,0-189.4,171.5-209.2,229.5h0Z"/>
          <g class="st31">
            <g>
              <path class="st8" d="M389.4,1518.9c3.2-11.4,8.1-27.4,15.1-46,15.7-41.5,41.3-109.4,100.4-166.3,22.4-21.6,65.4-56.8,133.8-79"/>
              <path class="st8" d="M362.5,1402.3c17.6-5,36.8-8.6,57.4-9.9,124.5-7.8,219.2,73.9,251.2,104.3"/>
            </g>
          </g>
          <g class="st3">
            <path class="st23" d="M475.6,1614.8l-141.6-79.3v-64.5l239.8-12.1,113.8-32.6s-24.6,168.4-25.1,171.6-186.9,17-186.9,17Z"/>
          </g>
          <g class="st4">
            <path class="st23" d="M475.6,1614.8l-141.6-79.3v-64.5l239.8-12.1,113.8-32.6s-24.6,168.4-25.1,171.6-186.9,17-186.9,17Z"/>
          </g>
          <ellipse class="st0" cx="528.3" cy="1301.3" rx="47.3" ry="19.4" transform="translate(-696.5 613.9) rotate(-38.6)"/>
        </g>
        <g>
          <path class="st14" d="M1266.8,1021.9c-6.2-31.7-10.7-54.8-18.4-78.2-20.1-60.6-97.8-229.9-180.8-220.1-37.7,4.5-61.7,44.1-71.4,60.2-.6,1-1.4,2.3-2.2,3.9-31.6,58.1-15,143.8-9.8,168.8,4.8,23.1,13.5,55.3,30.1,92.2,5.1,14.9,14.6,33.8,32.7,41.8,26.4,11.5,43.1-12.5,75.6-1.2,21.4,7.5,47.7,29.7,51.8,48.4.4,1.9,1.2,6.8,5.1,11.1,6.9,7.7,18.4,7.8,25.1,8.4,11.6,1,20.3-4.9,33.2-13.6,7.7-5.2,25.2-17.4,33.4-40,.2-.6,10.7-4.4-4.3-81.7Z"/>
          <path class="st18" d="M1183.8,1126.3s7.9,28.7,33.5,13.4l25.6-15.2s-32-173.4-89.2-239.3c-9.4,24.2-17.5,25.6-28.8,35,35.5,89.6,58.8,206.2,58.8,206.2h0Z"/>
          <g class="st32">
            <g>
              <path class="st5" d="M974.4,1032c-1.1-12.3-1.9-28.2-.9-46.9,4.3-79.7,40.6-199.9,100.2-205.6,42.4-4,92.6,50.6,113.1,80.1,1.3,1.9,2.1,3.1,3.3,5,12.4,19.1,40.1,65.5,62.5,172.2,4.2,20.2,9.5,48.3,13.8,82.2"/>
              <path class="st5" d="M1015.3,1050.9c36.7-.1,96-5.4,160.4-35.4,33.1-15.4,59.4-33.6,79.2-49.8"/>
            </g>
          </g>
          <ellipse class="st2" cx="1201.6" cy="884.1" rx="15.1" ry="58.9" transform="translate(-266 616.5) rotate(-26)"/>
          <path class="st29" d="M976.6,938.7c-15.7-11.5-25.2-28-29.9-46.2-4.2-15.2-2.4-32.4,5.5-46.6.5-.9,1.6-2.8,2.2-3.7,7.9-13.2,25.3-17.9,38.5-10.7,16.7,9.5,27.8,27.6,29.9,46.2,2.5,18.7-.2,37.5-10.5,54-7.8,11.9-24,15.1-35.7,6.9h0Z"/>
          <path class="st20" d="M975.8,831.1c10.1,13.3,20.1,26.6,30.2,39.8.4,1,.7,2,1.1,3.1,2.9,1.8,8.5,5.9,11.5,13.2,2.7,6.6,1.9,12.5.9,19.3-.8,5.4-2.9,14-8.5,23.6-1.5-1-10.6-7.5-12.2-19.9-1.6-11.7,4.7-20.1,5.8-21.6-2.5-3.6-4.9-7.2-7.4-10.8-2.7,1-8.2,2.7-14.8,1.4-8.8-1.7-18.6-8.4-21.2-19.4-2.3-10.1,3.5-21.8,14.6-28.6h0Z"/>
          <path class="st29" d="M1094.9,768c-22.3-17.8-45.9-29.5-74.2-33.3-9.7-1.4-19.7-1.8-29.5-2.5-25.4-2.2-30.8-36.4-7.7-46.4,13.2-5.4,27.6-7.2,41.8-6.6,42.2,1.8,83.9,28.6,99.7,68.4,6.6,18.6-15.3,33.2-30.1,20.5h0Z"/>
          <path class="st29" d="M1125.1,891.8c-15.1,3-30.1,6.5-43.9,12.4-6.6,2.8-13.1,6-19.4,9.3-7.5,3.9-14.9,8.4-22.7,12-22.2,10.1-43.5-14.6-31-35,9.8-15.2,24.9-26.4,41.2-33.8,25.6-11.1,56.6-12.9,82-.8,17,8.7,12.5,33.2-6.2,35.9h0Z"/>
          <path class="st29" d="M1117.5,844.7c-26.8-7.6-51.4-7.9-76.5,4.2-7.5,3.5-14.8,7.7-21.9,12.2-3,1.8-6.3,4.2-9.2,5.8l-5.5,2.9c-25,13.1-51.1-14.2-37.6-38.5,12.9-22,33.8-37.9,57.6-46.6,24.2-8.7,52.7-8.3,76.2,1.3,15.3,6.2,29.1,15.7,39.2,28.5,6.6,8.5,5,20.6-3.4,27.2-5.6,4.4-12.5,4.9-18.8,2.9h0Z"/>
        </g>
        <path class="st21" d="M817.2,1098.5s63-15.2,76.2-32.3c15.2,13.4,108.7,112.9,20.9,342.4,6.4-106.7,7.7-240.7-97.1-310.2h0Z"/>
        <path class="st27" d="M605.5,559.3c-56.9,10.4-113.7,20.9-170.6,31.3-14.4,2.7-27.9-7.9-27.9-21.9v-111.6c0-14,13.4-24.5,27.9-21.8,59.4,10.9,118.8,21.8,178.2,32.7,12.3,2.3,20.6,13.4,18.7,25.2-2.5,15.9-5.1,31.7-7.6,47.6-1.5,9.3-9,16.7-18.7,18.5h0Z"/>
        <path class="st27" d="M952.9,490.7c-.3,7.3-7.3,12.4-14.3,10.6-12.9-3.3-28.8-5.8-47-5.6-38.2.6-68.4,13.3-87.3,24-6.6,3.7-15,.2-16.8-7.2l-4.8-19.5c-1.1-4.5.6-9.2,4.3-12,18-13.3,52.8-34.5,100.2-37.2,20.8-1.2,38.8,1.5,52.9,5,3.9,1,7,3.8,8.3,7.6,1.7,5.4,3.3,11.9,4.1,19.3.6,5.4.7,10.5.5,15h0Z"/>
        <path class="st17" d="M833,660.3c-4.5-14.3-20.4-35-49.6-30.4-38.5,6-70.8,39.9-79.9,85.2"/>
        <path class="st7" d="M1149.9,329.2c-42.8-83.4-98.7-124.2-126.8-141.6-53.2-33-110.8-46.7-150.6-56.1-29.3-7-54.3-10.8-72.5-13.1"/>
        <path class="st7" d="M376.2,142.6c30.5-7.2,63.9-13.7,100.1-18.7,52.5-7.2,100.8-9.8,143.6-9.7"/>
      </g>
    </g>
  </g>
</svg>